HIERARCHY
ROOT Hips
{
  OFFSET 0 0 0
  CHANNELS 6 Xposition Yposition Zposition Zrotation Xrotation Yrotation
  JOINT Spine
  {
    OFFSET 0.00000000 0.00000000 0.00000000
    CHANNELS 3 Zrotation Xrotation Yrotation
    JOINT Spine1
    {
      OFFSET 0.19000000 0.00000000 0.00000000
      CHANNELS 3 Zrotation Xrotation Yrotation
      JOINT Neck
      {
        OFFSET 0.22500000 0.00600000 0.00000000
        CHANNELS 3 Zrotation Xrotation Yrotation
        JOINT Head
        {
          OFFSET 0.14000000 0.00030878 0.00000000
          CHANNELS 3 Zrotation Xrotation Yrotation
          End Site
          {
            OFFSET 0.17000000 0.00000000 0.00000000
          }
        }
      }
      JOINT LeftShoulder
      {
        OFFSET 0.19800000 0.03700000 0.04300000
        CHANNELS 3 Zrotation Xrotation Yrotation
        JOINT LeftArm
        {
          OFFSET 0.08000000 0.00000000 0.00000000
          CHANNELS 3 Zrotation Xrotation Yrotation
          JOINT LeftForeArm
          {
            OFFSET 0.15200000 0.00000000 0.00000000
            CHANNELS 3 Zrotation Xrotation Yrotation
            JOINT LeftHand
            {
              OFFSET 0.17800000 0.00000000 0.00000000
              CHANNELS 3 Zrotation Xrotation Yrotation
              End Site
              {
                OFFSET 0.07200000 0.00000000 0.00000000
              }
            }
          }
        }
      }
      JOINT RightShoulder
      {
        OFFSET 0.19800000 0.03700000 -0.04300000
        CHANNELS 3 Zrotation Xrotation Yrotation
        JOINT RightArm
        {
          OFFSET 0.08000000 0.00000000 0.00151654
          CHANNELS 3 Zrotation Xrotation Yrotation
          JOINT RightForeArm
          {
            OFFSET 0.15200000 0.00000000 0.00000000
            CHANNELS 3 Zrotation Xrotation Yrotation
            JOINT RightHand
            {
              OFFSET 0.17800000 0.00000000 0.00000000
              CHANNELS 3 Zrotation Xrotation Yrotation
              End Site
              {
                OFFSET 0.07200000 0.00000000 0.00000000
              }
            }
          }
        }
      }
    }
  }
  JOINT LeftUpLeg
  {
    OFFSET 0.05984250 -0.07666000 0.04788790
    CHANNELS 3 Zrotation Xrotation Yrotation
    JOINT LeftLeg
    {
      OFFSET 0.16000000 0.00000000 0.00000000
      CHANNELS 3 Zrotation Xrotation Yrotation
      JOINT LeftFoot
      {
        OFFSET 0.18000000 0.00000000 0.00000000
        CHANNELS 3 Zrotation Xrotation Yrotation
        End Site
        {
          OFFSET 0.00000000 -0.10800000 0.00000000
        }
      }
    }
  }
  JOINT RightUpLeg
  {
    OFFSET 0.05984250 -0.07665980 -0.04788790
    CHANNELS 3 Zrotation Xrotation Yrotation
    JOINT RightLeg
    {
      OFFSET 0.16000000 0.00000000 0.00000000
      CHANNELS 3 Zrotation Xrotation Yrotation
      JOINT RightFoot
      {
        OFFSET 0.18000000 0.00000000 0.00000000
        CHANNELS 3 Zrotation Xrotation Yrotation
        End Site
        {
          OFFSET 0.00000000 -0.10800000 0.00000000
        }
      }
    }
  }
  JOINT Tail
  {
    OFFSET 0.06836960 -0.00722574 0.00000000
    CHANNELS 3 Zrotation Xrotation Yrotation
    JOINT Tail1
    {
      OFFSET 0.12000000 0.00000000 0.00000000
      CHANNELS 3 Zrotation Xrotation Yrotation
      End Site
      {
        OFFSET 0.12000000 0.00000000 0.00000000
      }
    }
  }
}
MOTION
Frames:	14
Frame Time:	0.0166667
0.0000000 0.0728970 0.0000000 -100.689 -0.46644 2.46949 -134.235 -0.273528 -3.24419 10.8793 1.19116 1.86321 10.113 4.28192 -4.71449 -179.268 86.0962 -149.921 -110.008 -37.1082 -136.12 86.1169 -66.6968 -161.848 -75.3687 6.80432 2.1546 7.28554 0.581742 -15.3693 76.1591 -29.3401 46.1265 123.114 -71.1015 16.5051 -82.039 -11.8496 -1.5373 7.19384 0.0764921 -2.70308 -166.121 55.8049 27.3382 165.267 51.7543 -0.475887 -16.5225 2.90942 38.245 -124.837 -57.4852 -4.10661 162.809 -34.4447 -4.59154 -34.4816 -3.14146 -30.4917 86.3848 11.4263 -11.6352 11.4633 -10.5073 0.840951 
0.0009928 0.0717060 0.0002829 -101.831 -0.16624 2.83455 -132.88 -0.103251 -3.44248 10.3433 1.47256 2.18749 10.3375 4.37301 -4.80551 178.905 86.0315 -147.967 -109.907 -37.0112 -136.033 85.6789 -67.0023 -162.284 -75.644 6.95239 2.06848 7.44818 0.539226 -15.2335 76.1228 -29.4827 46.3354 124.279 -71.1633 17.5949 -82.3955 -11.9102 -1.50877 7.45483 0.0521591 -3.06671 -163.969 57.0593 26.2402 164.995 52.3164 -0.33496 -16.9286 2.59449 37.2612 -123.115 -56.2031 -2.95509 162.806 -34.6548 -4.57149 -34.2971 -3.17561 -30.0573 87.8272 10.7404 -11.6067 10.9555 -10.2362 0.868089 
0.0005771 0.0725569 0.0011258 -101.282 0.02145 2.76323 -133.636 -0.0939088 -3.45133 10.8933 1.47602 2.16824 10.0297 4.47689 -5.1786 -177.964 85.8536 -150.747 -109.877 -36.9959 -135.981 85.8371 -66.7667 -162.131 -75.6923 8.10764 2.17954 5.86702 0.607365 -14.6375 75.9313 -29.9613 46.7704 123.453 -71.7014 16.5578 -81.8147 -12.0837 -1.45883 6.84332 0.021837 -3.18361 -165.982 58.4384 29.258 164.701 54.5215 -0.175026 -18.42 2.15485 37.4712 -123.908 -56.9254 -3.30694 162.584 -34.9861 -4.65101 -34.1769 -3.20222 -30.3905 87.0566 10.8753 -10.9952 11.5105 -10.3824 0.959889 
0.0004719 0.0725599 0.0010294 -101.268 -0.00034 2.68116 -133.579 -0.0678301 -3.58422 10.7892 1.55264 2.34806 10.0619 4.48309 -5.27609 -179.704 85.8871 -149.198 -109.894 -36.9445 -136.124 86.3161 -66.8054 -161.641 -75.5486 7.82008 2.25594 5.77198 0.662037 -15.1371 75.9618 -29.9377 46.8251 123.918 -71.7124 17.2825 -81.7952 -12.0389 -1.51479 6.7831 0.020212 -3.01119 -166.786 58.4711 30.1101 164.726 54.8565 -0.175184 -18.1428 2.32694 37.8227 -123.669 -57.0124 -3.28962 162.499 -35.2382 -4.67976 -34.3449 -3.14609 -30.3198 87.0736 10.9153 -10.938 11.6248 -10.3678 0.998509 
0.0007124 0.0719722 0.0002280 -101.400 -0.06011 2.71418 -133.278 -0.0142948 -3.52466 10.4564 1.58989 2.24207 10.1456 4.52696 -5.26613 -178.471 85.8354 -150.523 -109.915 -36.948 -136.174 85.5511 -66.8979 -162.514 -75.8239 7.81483 2.34041 5.87165 0.647192 -14.9122 75.9279 -29.9229 46.6683 124.601 -71.3408 17.1993 -82.0112 -12.3397 -1.34334 6.82565 0.0576961 -3.1681 -164.858 56.1433 27.1707 165.253 50.8768 -0.39054 -16.6487 2.63703 37.0001 -124.596 -56.3285 -3.83587 162.888 -34.6495 -4.56627 -33.9158 -3.27041 -30.2738 87.3135 10.7871 -10.965 11.5545 -10.3013 0.961276 
0.0009159 0.0716932 0.0005636 -101.561 -0.01303 2.77822 -132.98 -0.000457324 -3.3704 10.2281 1.55 2.06572 10.1221 4.59203 -5.36905 -177.745 85.7529 -151.015 -109.87 -36.9513 -136.048 85.0185 -67.0524 -163.07 -75.9817 7.94401 2.3512 5.81787 0.635095 -14.7767 75.8994 -29.9553 46.6416 125.258 -71.4549 17.8801 -82.1905 -12.2025 -1.43649 6.89727 0.0426614 -3.03189 -164.679 56.6103 27.2621 165.138 51.2921 -0.34694 -17.0514 2.47252 36.8449 -124.878 -56.5504 -4.13205 162.932 -34.62 -4.5625 -33.7604 -3.31181 -30.4723 87.5192 10.6654 -10.9099 11.4534 -10.2627 0.942021 
0.0008445 0.0718814 0.0010829 -101.586 -0.00428 2.72929 -132.78 -0.0520912 -3.26834 10.0456 1.46174 1.94581 10.0241 4.68851 -5.49679 -178.204 85.6682 -150.282 -109.868 -36.9717 -136.004 84.84 -67.044 -163.096 -75.8839 7.85758 2.38505 5.65632 0.665744 -15.0837 75.9205 -29.9139 46.6208 125.36 -71.5749 18.1378 -82.0654 -12.198 -1.45175 6.74356 0.0211769 -2.88117 -166.034 58.1968 29.3675 164.781 54.1752 -0.202065 -18.0731 2.27285 37.4363 -124.362 -57.1566 -3.96686 162.689 -34.9858 -4.6376 -33.9605 -3.24804 -30.5572 87.4916 10.7765 -10.963 11.3756 -10.2899 0.869862 
0.0002218 0.0718610 0.0000249 -101.103 -0.37694 2.45203 -133.356 -0.189188 -3.08171 10.2494 1.23112 1.70219 9.86903 4.68647 -5.35932 -179.306 85.7232 -149.135 -109.966 -37.0421 -136.131 84.6051 -66.751 -163.105 -75.8513 8.17863 2.29606 5.47005 0.687186 -14.8681 75.9296 -29.8287 46.4536 124.86 -71.3727 17.1485 -81.9311 -12.3578 -1.29719 6.64063 0.0452573 -2.78926 -166.166 55.5758 28.2161 165.384 50.8289 -0.454195 -16.4442 2.81941 37.573 -125.526 -58.5378 -4.68936 162.897 -35.9322 -4.71997 -34.0421 -3.2134 -31.1392 87.1204 11.0402 -11.296 11.5272 -10.2797 0.943959 
0.0000481 0.0718533 -0.0002724 -100.972 -0.50056 2.42275 -133.541 -0.180597 -2.92565 10.3143 1.17557 1.50315 9.77604 4.6914 -5.30204 -179.726 85.7361 -148.561 -109.994 -37.0936 -136.109 84.7976 -67.0122 -163.293 -75.8915 7.94052 2.43464 5.62746 0.685105 -14.9605 75.9108 -29.8072 46.3352 124.837 -71.2737 16.8307 -81.949 -12.24 -1.24917 6.74508 0.0324789 -2.52623 -166.206 54.9908 27.8575 165.52 50.3596 -0.504978 -16.4795 2.81211 37.7128 -125.403 -58.6944 -4.40857 162.918 -36.2158 -4.74803 -34.2656 -3.14899 -31.1212 86.9833 11.1174 -11.4445 11.5583 -10.3051 0.955152 
0.0001613 0.0719331 -0.0000132 -100.987 -0.44960 2.47814 -133.601 -0.227307 -2.84362 10.4034 1.09985 1.3642 9.73258 4.78399 -5.31738 178.286 85.694 -146.485 -109.933 -37.1298 -135.879 84.7298 -67.1817 -163.523 -75.9362 7.96584 2.39353 5.77105 0.662893 -14.8983 75.8924 -29.8443 46.3563 124.412 -71.4702 16.4183 -81.8741 -12.2652 -1.2496 6.69545 0.0336445 -2.61537 -165.779 55.2591 27.5109 165.42 50.534 -0.477689 -16.8602 2.6249 37.4271 -125.662 -58.6969 -4.43851 162.963 -36.0697 -4.73236 -34.0859 -3.20352 -31.2136 86.9666 11.0796 -11.3974 11.5506 -10.322 0.984656 
0.0000737 0.0721959 -0.0001652 -100.846 -0.47930 2.42204 -133.894 -0.314795 -2.80171 10.656 0.994706 1.24072 9.7106 4.97016 -5.3416 176.145 85.5825 -144.493 -109.919 -37.1515 -135.802 84.7776 -66.889 -163.331 -75.8421 8.24152 2.28339 5.65015 0.655995 -14.6414 75.9645 -29.7987 46.509 123.4 -71.7187 15.4598 -81.6489 -12.3882 -1.13356 6.67326 0.0364977 -2.84011 -165.547 54.8947 27.1094 165.41 49.94 -0.499218 -16.5051 2.69937 37.1621 -125.949 -58.9479 -4.65321 162.966 -36.1774 -4.74978 -34.1259 -3.19462 -31.3391 86.7867 11.1967 -11.4835 11.5698 -10.3529 0.994738 
0.0001787 0.0725335 -0.0003282 -100.695 -0.46849 2.35739 -134.222 -0.298973 -2.87047 10.9386 1.03829 1.25206 9.70092 5.14578 -5.41045 172.921 85.4864 -141.416 -109.99 -37.1493 -135.994 85.5052 -66.743 -162.935 -75.685 7.91079 2.43558 5.72139 0.65185 -14.703 75.9663 -29.6875 46.253 122.321 -70.9247 14.1124 -81.6798 -12.8093 -1.05855 6.60717 0.116454 -3.64787 -166.243 54.7967 27.6816 165.385 50.0335 -0.491965 -15.9515 2.95423 37.4201 -126.329 -58.062 -5.28042 163.004 -34.8168 -4.59296 -33.9349 -3.26529 -31.0187 86.5908 11.3054 -11.4804 11.653 -10.3836 1.02875 
0.0003144 0.0724498 -0.0003194 -100.798 -0.46476 2.37666 -134.257 -0.230071 -2.90746 11.0512 1.12044 1.33479 9.78497 5.28043 -5.47457 167.604 85.422 -136.224 -109.951 -37.085 -136.013 86.2018 -66.8748 -162.566 -75.6035 7.71109 2.50841 5.85331 0.646825 -14.7947 75.902 -29.7725 46.2218 122.402 -70.9777 14.3025 -81.6737 -12.5724 -1.08527 6.78877 0.0880752 -3.36874 -166.118 55.0435 27.8365 165.307 50.3935 -0.460304 -16.223 2.84465 37.3191 -125.653 -57.7284 -4.75429 162.901 -34.6335 -4.58865 -34.1332 -3.22183 -30.7691 86.7191 11.2699 -11.5238 11.6483 -10.3636 1.05588 
0.0001742 0.0723046 -0.0000884 -100.923 -0.40170 2.47274 -134.271 -0.206372 -2.92128 11.1824 1.14538 1.41748 9.83071 5.54129 -5.55972 160.68 85.2063 -129.25 -109.916 -37.0584 -135.97 86.0224 -66.8524 -162.676 -75.6349 7.99564 2.38283 5.79377 0.626176 -14.5481 75.938 -29.8577 46.552 122.518 -71.5906 14.8948 -81.5756 -12.2695 -1.21604 6.77736 0.0503381 -3.00969 -165.478 55.3729 27.4221 165.324 50.5793 -0.445244 -16.9786 2.54877 37.2332 -125.352 -58.2163 -4.06174 162.897 -35.7398 -4.70441 -34.1208 -3.21012 -31.0379 86.8379 11.163 -11.4705 11.5632 -10.3575 1.03367 
